<?xml version="1.0" standalone="no"?>
<!DOCTYPE svg PUBLIC "-//W3C//DTD SVG 20010904//EN"
 "http://www.w3.org/TR/2001/REC-SVG-20010904/DTD/svg10.dtd">
<svg version="1.0" xmlns="http://www.w3.org/2000/svg"
 width="346.000000pt" height="346.000000pt" viewBox="0 0 346.000000 346.000000"
 preserveAspectRatio="xMidYMid meet">
<metadata>
Created by potrace 1.11, written by Peter Selinger 2001-2013
</metadata>
<g transform="translate(0.000000,346.000000) scale(0.100000,-0.100000)"
fill="#000000" stroke="none">
<path d="M247 2251 c-72 -15 -127 -99 -111 -168 20 -81 69 -123 145 -123 45 0
45 -1 41 -29 -9 -66 44 -145 108 -158 25 -5 28 -10 32 -59 3 -39 11 -61 29
-80 47 -50 65 -54 258 -54 174 0 181 1 207 23 21 19 26 29 21 49 -4 14 -15 29
-24 33 -10 4 -98 6 -195 5 -162 -1 -177 0 -186 17 -6 10 -6 27 -1 41 8 21 12
22 152 22 127 0 146 2 160 18 20 22 22 67 5 79 -7 4 -112 10 -233 13 l-220 5
-3 24 c-6 43 19 51 163 51 145 0 168 7 168 55 0 52 -15 55 -275 55 l-238 0 0
35 c0 28 5 36 23 40 12 3 230 4 484 3 l461 -3 27 -25 c32 -29 55 -78 55 -115
0 -24 -2 -25 -69 -25 -70 0 -149 -21 -163 -43 -4 -7 -8 -196 -8 -422 0 -441 0
-440 53 -479 28 -20 40 -21 453 -24 l424 -3 0 60 0 61 -387 0 -388 0 147 147
147 147 63 -56 c81 -71 96 -78 160 -78 61 0 79 10 156 84 l54 51 195 -200 195
-200 29 33 29 32 0 418 c0 229 -4 422 -8 429 -14 22 -93 43 -165 43 l-70 0 7
43 c8 52 32 87 77 109 31 16 76 18 494 18 253 0 466 -4 473 -9 8 -5 12 -21 10
-37 l-3 -29 -248 -5 c-265 -5 -266 -6 -267 -57 0 -46 22 -53 158 -53 146 0
168 -4 175 -32 13 -47 8 -48 -219 -48 -201 0 -215 -1 -234 -20 -25 -25 -25
-45 0 -70 18 -18 33 -20 153 -20 146 0 171 -8 165 -51 l-3 -24 -191 -5 c-203
-5 -224 -10 -224 -55 0 -12 8 -29 18 -38 16 -15 46 -17 218 -17 177 0 202 2
230 19 36 22 64 76 64 124 0 32 4 37 35 47 65 21 103 83 96 158 -2 19 3 22 36
22 21 0 54 8 73 18 108 54 108 220 0 274 -32 16 -78 18 -509 18 -331 0 -485
-4 -512 -12 -88 -26 -169 -135 -169 -225 l0 -43 -319 0 -319 0 -4 53 c-7 88
-56 163 -132 205 -28 15 -78 17 -511 19 -264 0 -497 -2 -518 -6z m1878 -483
c-54 -57 -158 -163 -231 -235 -117 -118 -136 -133 -166 -133 -30 0 -55 22
-268 235 l-235 235 499 0 499 0 -98 -102z m-695 -268 c0 -3 -58 -64 -130 -135
l-130 -130 0 270 1 270 129 -135 c71 -74 129 -137 130 -140z m860 3 l0 -268
-135 135 -135 135 132 132 c73 73 134 133 135 133 2 0 3 -120 3 -267z"/>
<path d="M2077 1133 c-8 -8 -7 -164 2 -313 5 -91 8 -105 24 -108 11 -2 32 8
48 24 l28 27 19 -44 c11 -24 22 -54 26 -66 10 -30 29 -34 75 -16 49 19 50 31
16 109 -14 31 -25 58 -25 60 0 1 21 4 48 6 37 2 47 7 47 21 0 23 -264 307
-285 307 -9 0 -20 -3 -23 -7z"/>
</g>
</svg>
